Coordinates
version=1
nRows=9
nColumns=24
inDegrees=yes

Units are S.I. units (second, meters, Newtons, ...)
Angles are in degrees.

endheader
time	pelvis_tilt	pelvis_list	pelvis_rotation	pelvis_tx	pelvis_ty	pelvis_tz	hip_flexion_r	hip_adduction_r	hip_rotation_r	knee_angle_r	ankle_angle_r	subtalar_angle_r	mtp_angle_r	hip_flexion_l	hip_adduction_l	hip_rotation_l	knee_angle_l	ankle_angle_l	subtalar_angle_l	mtp_angle_l	lumbar_extension	lumbar_bending	lumbar_rotation
      0.90400000	     -5.72052201	     -2.20810050	      7.36533809	     -0.39348737	      0.91488858	      0.28919445	     16.04416221	      7.26325303	     -3.62942469	    -20.54666898	      6.95413757	     -3.56181617	      4.23644754	     16.41547866	     -4.47180549	     -1.34651964	    -59.41444040	      3.63877014	     -8.71789973	      3.24956910	     -1.36035180	      4.10358232	     -4.34141653
      0.90816667	     -5.66875472	     -2.05037782	      7.14448199	     -0.38850821	      0.91591003	      0.28958744	     15.37819808	      7.22274235	     -3.38234179	    -20.05416346	      6.95548520	     -3.51503894	      4.23386659	     16.92295462	     -4.29162272	     -1.66093817	    -58.86359315	      4.03731861	     -8.85984935	      3.16498284	     -1.41638534	      3.94357436	     -4.12522767
      0.91233333	     -5.56323429	     -1.90393591	      6.93530772	     -0.38355920	      0.91698313	      0.29001878	     14.63006792	      7.20914954	     -3.08397194	    -19.49974021	      6.96251128	     -3.56520986	      4.22940141	     17.36820630	     -4.13268219	     -1.94875796	    -58.26372029	      4.33173746	     -8.96926169	      2.97915714	     -1.59890747	      3.76284493	     -3.63907075
      0.91650000	     -5.49121320	     -1.74828362	      6.69150709	     -0.37863250	      0.91794969	      0.29047331	     13.94109440	      7.17473913	     -2.78560075	    -18.98877376	      6.94959258	     -3.56402339	      4.22655587	     17.83091589	     -3.97182641	     -2.28428524	    -57.61782087	      4.63439950	     -9.09953101	      2.76651940	     -1.72061588	      3.58852501	     -3.27092183
      0.92066667	     -5.41172428	     -1.58575438	      6.43467678	     -0.37373967	      0.91888209	      0.29095002	     13.25318848	      7.12924150	     -2.47879365	    -18.49240522	      6.95237691	     -3.54457596	      4.22686460	     18.27162757	     -3.81017253	     -2.63014345	    -56.92267837	      4.88896793	     -9.23929911	      2.58298953	     -1.86951916	      3.40891613	     -2.94783607
      0.92483333	     -5.34098452	     -1.44073693	      6.16499601	     -0.36885740	      0.91974779	      0.29144114	     12.57443956	      7.09721083	     -2.16473903	    -17.98038080	      6.89533345	     -3.52845011	      4.22980909	     18.71449189	     -3.67724672	     -2.99501506	    -56.19376779	      5.13059153	     -9.38676053	      2.29114124	     -2.00136189	      3.24706229	     -2.51090705
      0.92900000	     -5.27161663	     -1.26274069	      5.86504351	     -0.36399372	      0.92056278	      0.29198245	     11.92295192	      7.02540659	     -1.84512153	    -17.53263304	      6.92334579	     -3.46646064	      4.23395996	     19.13084762	     -3.52659682	     -3.41208804	    -55.40100093	      5.30664565	     -9.52603042	      2.19093304	     -2.12996125	      3.04685715	     -2.34162050
      0.93316667	     -5.15493994	     -1.11059469	      5.60434895	     -0.35912771	      0.92141258	      0.29246689	     11.18980743	      6.97587208	     -1.54756037	    -17.00950715	      6.93768215	     -3.47647334	      4.24269465	     19.49366689	     -3.39090456	     -3.76162725	    -54.56585301	      5.42078418	     -9.71355329	      2.00125215	     -2.31522302	      2.86605921	     -1.86203029
      0.93733333	     -5.09978072	     -0.96598227	      5.28032228	     -0.35428992	      0.92208793	      0.29305981	     10.55655558	      6.93320555	     -1.19475018	    -16.54512795	      6.91590977	     -3.48208123	      4.27986572	     19.91035291	     -3.29893199	     -4.20817777	    -53.70913261	      5.54324055	     -9.82560338	      1.44384609	     -2.41052965	      2.69380327	     -1.33209046
